<?xml version="1.0" standalone="no"?>
<!DOCTYPE svg PUBLIC "-//W3C//DTD SVG 20010904//EN"
 "http://www.w3.org/TR/2001/REC-SVG-20010904/DTD/svg10.dtd">
<svg version="1.0" xmlns="http://www.w3.org/2000/svg"
 width="700.000000pt" height="700.000000pt" viewBox="0 0 700.000000 700.000000"
 preserveAspectRatio="xMidYMid meet">
<metadata>
Created by potrace 1.11, written by Peter Selinger 2001-2013
</metadata>
<g transform="translate(0.000000,700.000000) scale(0.100000,-0.100000)"
fill="#000000" stroke="none">
<path d="M2383 6185 c-17 -7 -39 -28 -49 -46 -16 -32 -16 -57 1 -177 2 -18 7
-52 10 -75 7 -56 17 -123 34 -247 6 -41 13 -91 15 -110 10 -79 18 -136 22
-160 2 -14 7 -47 10 -75 3 -27 8 -61 10 -75 2 -14 7 -47 10 -75 4 -27 8 -57 9
-65 3 -13 6 -38 20 -145 26 -209 32 -229 84 -259 30 -17 39 -18 79 -7 26 7 60
18 77 26 54 24 286 121 430 179 168 68 200 95 192 162 -4 36 -30 76 -193 291
-104 136 -223 293 -264 348 -41 55 -79 105 -85 111 -5 6 -69 90 -142 185 -72
96 -142 184 -155 196 -30 28 -75 35 -115 18z m328 -652 c57 -76 106 -140 109
-143 15 -15 221 -292 226 -303 3 -9 -7 -19 -28 -27 -18 -7 -46 -19 -63 -26
-126 -55 -249 -103 -254 -99 -5 6 -6 11 -16 85 -3 25 -15 108 -26 185 -23 164
-27 193 -34 260 -4 28 -8 57 -10 65 -2 8 -7 42 -11 75 -3 33 -9 64 -12 69 -3
5 -1 6 5 3 5 -3 56 -68 114 -144z"/>
<path d="M4530 6189 c-14 -5 -60 -56 -105 -114 -44 -58 -88 -116 -97 -128 -24
-30 -422 -553 -558 -732 -97 -129 -110 -151 -110 -185 0 -66 32 -90 230 -171
507 -207 490 -201 523 -194 37 8 66 31 78 62 4 12 22 123 39 245 16 123 34
255 40 293 5 39 12 93 15 120 3 28 8 60 11 73 2 12 7 44 9 70 3 26 7 56 10 67
2 11 7 47 10 80 4 33 8 67 10 75 2 8 9 53 15 100 5 47 12 95 15 108 30 156 7
222 -81 236 -16 2 -40 0 -54 -5z m-130 -556 c-4 -27 -11 -70 -15 -98 -4 -27
-8 -59 -10 -70 -1 -11 -6 -47 -9 -80 -4 -33 -9 -67 -11 -75 -2 -8 -7 -40 -10
-70 -3 -30 -8 -62 -10 -70 -2 -8 -7 -43 -10 -76 -15 -147 -18 -159 -44 -156
-13 2 -51 16 -85 31 -33 16 -103 45 -153 66 -51 21 -93 42 -93 46 0 10 446
599 454 599 2 0 0 -21 -4 -47z"/>
<path d="M3400 4783 c-31 -3 -99 -13 -185 -28 -49 -9 -185 -56 -255 -88 -67
-31 -197 -108 -239 -142 -221 -180 -357 -372 -441 -624 -18 -52 -33 -101 -35
-110 -1 -9 -6 -36 -10 -61 -4 -25 -9 -54 -11 -65 -2 -11 -6 -65 -8 -120 -19
-521 274 -992 755 -1217 223 -104 533 -140 777 -89 548 114 944 534 1028 1091
20 136 7 341 -32 495 -91 359 -362 686 -695 838 -61 28 -188 74 -222 81 -12 3
-33 7 -47 11 -109 24 -273 36 -380 28z m327 -241 c160 -36 278 -90 409 -187
229 -171 383 -430 420 -707 l5 -38 -58 0 -58 0 -13 66 c-51 267 -213 500 -447
640 -129 78 -328 134 -462 131 -67 -2 -77 -5 -97 -28 -12 -14 -96 -203 -185
-420 -90 -217 -177 -425 -193 -464 -16 -38 -33 -79 -37 -90 -21 -51 -39 -94
-121 -292 -114 -274 -114 -270 -38 -344 108 -104 261 -188 421 -230 81 -21 73
-19 97 -19 18 0 20 -7 20 -61 l0 -60 -52 6 c-139 18 -345 103 -464 191 -232
172 -393 439 -431 711 -9 65 -9 234 0 305 19 148 103 354 192 473 114 153 274
281 435 351 77 34 237 79 305 86 85 9 267 -1 352 -20z m-82 -327 c273 -46 518
-291 570 -568 l7 -37 -451 0 c-248 0 -451 2 -451 5 0 3 55 137 121 297 67 161
124 299 126 306 3 7 13 11 22 8 9 -2 34 -7 56 -11z m571 -857 c-4 -18 -10 -44
-12 -57 -8 -39 -69 -165 -105 -218 -46 -67 -146 -162 -212 -201 -195 -117
-407 -142 -624 -74 -43 14 -162 77 -197 105 l-28 23 93 227 93 227 499 0 500
0 -7 -32z m340 -14 c-20 -170 -114 -380 -235 -524 -167 -200 -421 -345 -659
-375 l-52 -6 0 60 c0 55 2 61 21 61 46 0 189 44 274 84 153 73 290 190 383
327 17 27 32 53 32 59 0 5 4 10 9 10 5 0 11 8 14 18 3 9 21 55 40 102 33 81
40 104 54 193 l6 37 59 0 59 0 -5 -46z"/>
<path d="M863 4665 c-52 -22 -73 -86 -47 -142 9 -18 19 -33 23 -33 3 0 20 -13
38 -28 17 -15 44 -36 59 -47 41 -30 493 -373 932 -707 51 -38 71 -48 102 -48
68 0 88 28 193 285 52 127 112 271 132 320 21 50 39 104 41 121 3 37 -27 91
-58 104 -22 9 -315 52 -443 66 -33 3 -62 7 -65 9 -3 2 -34 6 -70 10 -36 3 -72
8 -80 10 -8 2 -37 7 -65 10 -27 3 -61 7 -75 10 -14 2 -47 6 -75 10 -27 3 -81
10 -120 16 -38 5 -88 12 -110 15 -22 3 -84 12 -137 20 -119 17 -134 17 -175
-1z m672 -289 c46 -5 133 -17 155 -21 8 -1 44 -6 80 -10 36 -4 74 -9 85 -11
11 -2 61 -9 110 -16 50 -6 93 -14 98 -18 8 -7 -132 -350 -144 -350 -4 0 -132
94 -283 210 -152 115 -285 215 -296 222 -11 7 -20 15 -20 18 0 4 39 0 88 -7
48 -7 105 -15 127 -17z"/>
<path d="M5990 4670 c-25 -4 -69 -10 -99 -14 -30 -4 -64 -9 -75 -11 -12 -3
-43 -7 -71 -10 -27 -3 -97 -12 -155 -20 -182 -26 -244 -35 -290 -40 -25 -3
-56 -7 -70 -10 -14 -3 -43 -7 -65 -10 -22 -2 -56 -6 -75 -9 -49 -7 -88 -12
-230 -31 -69 -9 -135 -23 -147 -31 -33 -21 -56 -71 -49 -106 11 -57 268 -663
291 -687 15 -15 38 -25 66 -28 42 -4 49 -1 139 66 52 40 102 77 110 84 15 12
139 107 625 475 127 96 244 188 262 204 36 35 46 79 28 125 -24 56 -81 72
-195 53z m-320 -269 c0 -5 -55 -50 -122 -101 -68 -52 -188 -143 -268 -203 -80
-61 -154 -118 -166 -129 -11 -10 -25 -18 -31 -18 -16 0 -155 343 -142 351 6 4
50 12 98 18 47 6 95 13 106 15 11 2 47 7 80 10 33 4 67 9 75 11 8 2 42 6 75
10 33 3 71 8 85 10 76 11 106 16 148 21 26 3 49 7 51 10 7 6 11 5 11 -5z"/>
<path d="M1669 3140 c-145 -110 -387 -293 -538 -407 -267 -202 -320 -247 -322
-268 0 -5 -2 -19 -4 -29 -6 -33 22 -84 56 -101 33 -18 74 -17 214 5 33 5 83
12 110 15 28 4 61 8 75 10 36 5 178 24 225 30 22 3 51 7 65 10 14 3 48 8 75
11 28 3 59 7 70 9 11 1 47 6 80 10 33 4 67 9 76 10 9 2 40 6 69 10 29 4 62 8
73 11 10 2 45 6 76 10 31 3 63 8 71 9 9 2 42 6 74 10 43 6 67 15 90 35 53 48
47 73 -103 435 -146 352 -159 375 -230 375 -35 0 -65 -20 -302 -200z m330
-262 c39 -95 68 -175 64 -179 -5 -4 -35 -10 -68 -13 -33 -3 -71 -8 -85 -10
-27 -5 -108 -16 -153 -22 -15 -2 -47 -6 -70 -10 -42 -6 -55 -8 -152 -20 -27
-3 -87 -11 -132 -18 -45 -6 -80 -9 -77 -5 4 6 111 89 409 314 44 33 82 63 85
66 10 11 93 69 100 69 4 0 40 -77 79 -172z"/>
<path d="M4962 3314 c-22 -21 -53 -82 -113 -229 -45 -110 -104 -254 -131 -320
-61 -146 -65 -170 -38 -213 24 -39 44 -48 147 -62 44 -6 88 -12 99 -14 10 -2
46 -7 79 -11 32 -4 66 -8 75 -10 8 -2 44 -6 80 -10 36 -4 67 -8 70 -10 3 -2
30 -6 60 -9 30 -3 66 -8 80 -10 14 -2 50 -7 80 -11 30 -4 64 -9 75 -11 11 -2
43 -6 70 -9 28 -3 61 -8 75 -10 14 -3 45 -7 70 -10 25 -3 92 -12 150 -21 192
-27 225 -28 255 -8 49 32 63 96 35 149 -6 11 -68 63 -138 115 -70 52 -129 97
-132 100 -6 6 -76 60 -255 195 -71 54 -175 133 -230 175 -353 268 -344 262
-389 267 -37 5 -47 1 -74 -23z m152 -283 c12 -10 107 -83 211 -162 289 -218
345 -261 350 -268 2 -4 -35 -1 -83 6 -48 7 -109 15 -137 18 -27 3 -61 8 -75
10 -14 2 -43 6 -65 10 -23 3 -50 7 -60 9 -11 2 -49 7 -85 11 -36 5 -72 9 -80
10 -8 2 -44 6 -80 10 -36 4 -68 10 -73 14 -9 9 132 351 146 351 6 0 20 -8 31
-19z"/>
<path d="M2552 2320 c-34 -21 -50 -50 -57 -104 -2 -17 -7 -53 -10 -81 -3 -27
-8 -61 -10 -75 -3 -21 -45 -319 -61 -440 -2 -19 -7 -51 -10 -70 -3 -19 -7 -50
-9 -68 -2 -18 -9 -69 -15 -115 -6 -45 -13 -97 -16 -115 -2 -17 -6 -47 -8 -65
-3 -17 -8 -54 -12 -82 -3 -27 -8 -59 -10 -70 -15 -78 -15 -145 1 -175 28 -54
106 -72 156 -36 10 7 64 73 119 147 56 74 111 147 123 163 12 16 117 153 233
306 116 152 246 323 289 379 62 82 78 110 82 145 9 76 -9 87 -371 236 -176 73
-334 134 -350 136 -20 3 -42 -2 -64 -16z m315 -316 c87 -36 166 -69 175 -73
14 -5 2 -26 -70 -121 -279 -369 -365 -481 -375 -487 -5 -3 -8 -2 -5 3 4 5 9
34 13 64 6 55 8 70 19 145 3 22 8 60 11 85 3 25 7 56 10 70 2 14 7 43 10 65 2
22 7 56 10 75 8 60 13 103 21 165 6 57 11 75 19 75 2 0 75 -30 162 -66z"/>
<path d="M4240 2286 c-69 -29 -212 -89 -319 -132 -232 -95 -266 -119 -259
-188 5 -39 48 -99 419 -589 228 -300 423 -550 434 -556 57 -30 123 -12 151 40
15 31 16 92 0 174 -2 11 -7 45 -11 75 -3 30 -9 69 -11 85 -3 17 -7 46 -9 65
-2 19 -11 85 -19 145 -9 61 -24 175 -35 255 -11 80 -23 161 -25 180 -3 19 -8
51 -10 70 -5 41 -16 125 -22 160 -2 14 -6 45 -9 70 -19 149 -41 188 -112 196
-30 3 -66 -8 -163 -50z m66 -242 c2 -10 6 -41 9 -69 3 -27 8 -57 10 -65 2 -8
7 -37 10 -65 3 -27 7 -61 10 -75 2 -14 6 -47 10 -75 3 -27 8 -63 10 -80 3 -16
12 -84 21 -150 9 -66 18 -123 20 -127 3 -5 1 -8 -4 -8 -5 0 -48 51 -95 113
-46 61 -138 182 -202 267 -65 85 -126 165 -137 177 -24 26 -19 48 14 56 13 3
86 32 163 65 77 34 144 60 149 58 5 -1 11 -11 12 -22z"/>
</g>
</svg>
