<?xml version="1.0" standalone="no"?>
<!DOCTYPE svg PUBLIC "-//W3C//DTD SVG 20010904//EN"
 "http://www.w3.org/TR/2001/REC-SVG-20010904/DTD/svg10.dtd">
<svg version="1.0" xmlns="http://www.w3.org/2000/svg"
 width="700.000000pt" height="700.000000pt" viewBox="0 0 700.000000 700.000000"
 preserveAspectRatio="xMidYMid meet">
<metadata>
Created by potrace 1.11, written by Peter Selinger 2001-2013
</metadata>
<g transform="translate(0.000000,700.000000) scale(0.100000,-0.100000)"
fill="#000000" stroke="none">
<path d="M2500 6048 c-85 -22 -146 -65 -185 -133 -14 -24 -44 -103 -66 -176
-23 -74 -52 -170 -65 -214 -14 -44 -26 -87 -29 -95 -10 -41 -136 -444 -139
-447 -3 -3 -569 -179 -606 -188 -57 -14 -291 -90 -315 -102 -89 -46 -155 -166
-149 -272 4 -68 11 -81 252 -533 111 -208 202 -382 202 -388 0 -10 -32 -72
-117 -230 -17 -30 -59 -109 -94 -175 -35 -66 -85 -160 -111 -210 -121 -227
-131 -249 -131 -322 0 -110 61 -213 155 -261 17 -9 648 -204 900 -279 12 -4
27 -37 49 -107 17 -55 46 -150 64 -211 19 -60 66 -216 105 -345 86 -282 102
-314 185 -367 70 -46 142 -57 237 -37 22 4 253 125 618 322 47 25 120 64 163
86 l78 41 67 -35 c37 -19 135 -71 217 -115 604 -326 606 -327 718 -301 71 17
134 60 174 119 26 39 70 156 89 237 3 15 168 551 177 580 3 8 13 40 21 71 10
36 22 59 33 62 10 3 54 16 98 30 148 47 579 178 665 203 168 49 230 95 275
206 16 40 21 69 19 117 -4 67 -17 98 -149 341 -34 63 -88 165 -120 225 -32 61
-70 133 -85 160 -67 122 -100 186 -100 196 0 10 55 115 215 414 179 334 225
426 233 460 29 132 -41 272 -162 326 -42 18 -172 59 -536 169 -113 34 -216 65
-230 70 -14 5 -51 16 -82 26 -50 14 -59 21 -67 48 -13 46 -103 341 -151 496
-23 74 -48 155 -55 180 -58 202 -83 253 -152 305 -72 55 -160 73 -247 50 -28
-8 -98 -39 -156 -71 -58 -31 -143 -76 -190 -101 -47 -25 -107 -57 -135 -72
-77 -41 -295 -156 -343 -182 l-44 -22 -41 21 c-23 12 -78 41 -122 65 -84 45
-237 127 -440 234 -261 139 -306 154 -395 131z m495 -845 c83 -44 200 -106
260 -138 61 -32 115 -61 120 -65 26 -20 127 -31 177 -21 40 9 305 137 353 171
6 4 60 33 120 65 61 32 138 73 173 92 45 25 63 31 67 21 7 -20 37 -119 129
-421 84 -276 102 -321 152 -370 40 -40 91 -61 329 -133 121 -36 275 -83 342
-103 l122 -37 -100 -190 c-56 -104 -124 -232 -152 -284 -107 -201 -121 -240
-111 -322 6 -57 55 -156 302 -613 33 -60 57 -113 53 -116 -3 -4 -150 -50 -326
-103 -396 -120 -414 -127 -465 -183 -51 -54 -59 -73 -125 -293 -30 -96 -74
-242 -100 -325 -26 -82 -47 -156 -47 -162 -1 -7 -2 -13 -3 -13 -1 0 -116 61
-256 136 -405 217 -424 226 -486 229 -51 3 -144 -16 -168 -35 -10 -7 -70 -40
-300 -160 -66 -35 -160 -86 -210 -112 -49 -27 -94 -50 -98 -51 -7 -2 -48 111
-62 168 -12 54 -164 534 -174 554 -20 36 -82 101 -112 117 -32 16 -75 31 -219
74 -253 76 -473 143 -508 155 -9 3 -7 13 6 37 10 18 47 87 82 153 35 66 86
161 112 210 124 231 152 295 154 351 3 66 -10 109 -56 195 -20 36 -46 85 -59
110 -12 24 -35 67 -50 94 -15 28 -52 97 -83 155 -30 58 -67 127 -82 154 -34
63 -33 73 7 82 39 10 39 9 57 17 8 3 137 42 285 87 343 103 345 103 398 151
50 43 78 94 106 191 23 77 79 262 127 418 20 63 40 131 46 150 6 19 12 38 15
42 2 4 27 -5 56 -21 29 -16 120 -64 202 -108z"/>
<path d="M3355 4124 c-276 -65 -477 -303 -492 -584 -6 -110 5 -182 43 -277
170 -428 715 -539 1045 -213 247 244 252 636 13 890 -63 66 -163 133 -244 162
-104 39 -258 48 -365 22z"/>
</g>
</svg>
