<?xml version="1.0" standalone="no"?>
<!DOCTYPE svg PUBLIC "-//W3C//DTD SVG 20010904//EN"
 "http://www.w3.org/TR/2001/REC-SVG-20010904/DTD/svg10.dtd">
<svg version="1.0" xmlns="http://www.w3.org/2000/svg"
 width="700.000000pt" height="700.000000pt" viewBox="0 0 700.000000 700.000000"
 preserveAspectRatio="xMidYMid meet">
<metadata>
Created by potrace 1.11, written by Peter Selinger 2001-2013
</metadata>
<g transform="translate(0.000000,700.000000) scale(0.100000,-0.100000)"
fill="#000000" stroke="none">
<path d="M2151 6989 c-76 -14 -168 -65 -226 -123 -57 -56 -88 -114 -140 -256
-15 -41 -36 -97 -46 -125 -11 -27 -91 -239 -177 -469 l-158 -419 -289 -109
c-160 -60 -294 -111 -300 -112 -5 -2 -21 -7 -35 -13 -14 -6 -65 -25 -115 -43
-49 -18 -103 -38 -120 -45 -16 -7 -82 -32 -145 -55 -165 -61 -208 -85 -275
-154 -73 -75 -115 -172 -119 -276 -4 -102 9 -144 116 -380 17 -36 50 -110 75
-165 25 -55 65 -142 89 -193 24 -52 44 -95 44 -98 0 -2 15 -36 34 -76 59 -126
96 -208 96 -213 0 -2 17 -38 37 -80 42 -88 43 -80 -30 -235 -21 -47 -81 -177
-132 -290 -51 -113 -104 -230 -118 -260 -14 -30 -48 -107 -77 -170 -28 -63
-63 -138 -76 -165 -83 -173 -77 -336 17 -479 35 -53 97 -109 151 -137 35 -18
158 -67 188 -74 8 -2 116 -43 240 -90 124 -47 279 -106 345 -130 66 -25 183
-69 260 -98 l139 -54 216 -574 c119 -316 224 -590 234 -609 49 -90 188 -190
287 -205 147 -23 193 -12 464 115 50 23 173 79 275 125 102 45 210 94 240 108
283 130 366 167 381 167 10 0 59 -20 111 -44 51 -24 138 -64 193 -89 125 -57
157 -71 445 -202 333 -152 381 -173 420 -181 221 -43 431 73 509 282 169 454
365 973 372 989 4 11 17 42 28 70 18 48 21 51 82 72 35 13 73 27 84 33 11 5
148 57 305 115 157 58 294 109 305 114 11 5 97 37 190 72 221 81 259 100 325
168 87 90 130 199 124 317 -4 82 -20 134 -94 294 -34 74 -71 155 -82 180 -12
25 -42 92 -68 150 -115 256 -253 558 -269 590 -18 36 -18 36 9 95 14 33 34 76
42 95 9 19 31 67 48 105 18 39 51 113 75 165 24 52 61 135 84 183 23 49 41 90
41 91 0 2 20 47 45 99 25 53 45 98 45 100 0 3 22 51 49 108 60 128 79 195 76
281 -4 99 -37 185 -102 266 -71 87 -106 104 -713 330 -36 13 -94 35 -130 48
-36 13 -153 56 -259 97 l-195 73 -179 475 c-98 261 -179 479 -181 484 -5 21
-69 182 -86 216 -45 88 -152 173 -261 208 -80 26 -236 16 -296 -19 -10 -5 -88
-41 -173 -79 -85 -38 -191 -86 -235 -106 -44 -21 -114 -52 -155 -70 -41 -18
-111 -49 -155 -70 -44 -20 -93 -43 -110 -50 -16 -7 -74 -34 -129 -59 -132 -62
-137 -63 -199 -33 -28 14 -77 36 -107 50 -30 13 -75 33 -100 45 -25 11 -146
66 -270 122 -227 103 -289 131 -390 178 -200 92 -233 103 -320 107 -30 1 -75
-2 -99 -6z m432 -1069 c34 -15 114 -52 177 -80 63 -28 139 -63 169 -77 220
-102 414 -187 454 -200 51 -15 149 -19 204 -9 38 7 66 18 136 50 100 46 234
107 547 248 25 12 87 40 138 64 52 24 99 44 106 44 6 0 76 -172 154 -382 79
-211 147 -392 152 -403 4 -11 18 -45 29 -75 47 -121 140 -209 273 -260 46 -17
92 -35 103 -40 11 -5 137 -52 280 -105 143 -53 267 -99 275 -102 8 -3 17 -7
20 -8 3 -1 16 -6 30 -12 14 -5 49 -18 78 -28 56 -20 59 -27 38 -71 -17 -34
-52 -112 -184 -404 -38 -85 -85 -189 -105 -230 -56 -121 -94 -214 -102 -251
-13 -55 -7 -162 11 -215 14 -43 191 -439 305 -682 21 -46 39 -86 39 -88 0 -2
13 -31 29 -64 l29 -60 -32 -14 c-18 -7 -44 -17 -57 -21 -13 -4 -37 -13 -54
-20 -16 -7 -190 -73 -385 -145 -195 -73 -379 -146 -409 -164 -59 -34 -133
-110 -161 -166 -15 -30 -118 -299 -207 -540 -88 -241 -139 -370 -146 -370 -4
0 -27 8 -50 19 -23 10 -64 29 -92 41 -50 22 -323 147 -445 202 -236 108 -292
131 -350 142 -36 7 -75 12 -85 11 -11 -2 -41 -5 -67 -9 -46 -5 -101 -26 -231
-85 -548 -250 -705 -321 -713 -321 -8 0 -31 57 -117 290 -96 260 -227 601
-242 630 -24 47 -122 143 -170 168 -22 11 -139 57 -260 102 -121 45 -314 118
-430 161 -115 44 -215 82 -222 84 -10 3 58 156 383 873 21 46 31 146 22 216
-8 60 -67 200 -248 591 -81 176 -160 353 -160 362 0 5 125 55 278 112 152 57
291 109 307 116 17 7 82 32 145 55 183 68 218 86 282 150 73 73 74 77 269 598
175 469 145 427 262 372z"/>
<path d="M3390 4457 c-3 -3 -25 -7 -50 -10 -235 -30 -496 -197 -636 -408 -51
-77 -111 -203 -121 -251 -3 -18 -10 -40 -14 -50 -22 -42 -33 -309 -17 -398 31
-177 109 -342 224 -471 142 -160 361 -285 554 -315 14 -2 41 -7 60 -10 81 -14
252 -2 335 22 207 60 328 130 461 262 72 73 184 234 184 266 0 7 4 16 8 21 17
19 57 147 70 220 4 22 7 103 7 180 0 114 -5 156 -23 225 -21 79 -109 275 -135
303 -7 7 -30 35 -52 62 -136 173 -354 302 -575 342 -38 7 -274 16 -280 10z"/>
</g>
</svg>
