<svg version="1.1" viewBox="0.0 0.0 96.0 96.0" fill="none" stroke="none" stroke-linecap="square" stroke-miterlimit="10" xmlns:xlink="http://www.w3.org/1999/xlink" xmlns="http://www.w3.org/2000/svg"><clipPath id="p.0"><path d="m0 0l96.0 0l0 96.0l-96.0 0l0 -96.0z" clip-rule="nonzero"/></clipPath><g clip-path="url(#p.0)"><path fill="#000000" fill-opacity="0.0" d="m0 0l96.0 0l0 96.0l-96.0 0z" fill-rule="evenodd"/><path fill="#000000" fill-opacity="0.0" d="m16.946049 35.14979l13.940969 -4.251358l4.2414646 -13.944132l12.864082 6.8515873l12.858997 -6.860821l4.251358 13.940969l13.94413 4.2414646l-6.8515854 12.864082l6.860817 12.858994l-13.940964 4.251358l-4.2414665 13.944138l-12.864082 -6.851593l-12.858997 6.8608246l-4.251358 -13.940971l-13.944132 -4.2414627l6.8515873 -12.864082z" fill-rule="evenodd"/><path stroke="#ffffff" stroke-width="8.0" stroke-linejoin="round" stroke-linecap="butt" d="m16.946049 35.14979l13.940969 -4.251358l4.2414646 -13.944132l12.864082 6.8515873l12.858997 -6.860821l4.251358 13.940969l13.94413 4.2414646l-6.8515854 12.864082l6.860817 12.858994l-13.940964 4.251358l-4.2414665 13.944138l-12.864082 -6.851593l-12.858997 6.8608246l-4.251358 -13.940971l-13.944132 -4.2414627l6.8515873 -12.864082z" fill-rule="evenodd"/><path fill="#ffffff" d="m43.19685 48.0l0 0c0 -2.6527061 2.150444 -4.80315 4.80315 -4.80315l0 0c1.2738762 0 2.495575 0.5060463 3.3963394 1.4068108c0.90076447 0.90076447 1.4068108 2.1224632 1.4068108 3.3963394l0 0c0 2.6527061 -2.150444 4.80315 -4.80315 4.80315l0 0c-2.6527061 0 -4.80315 -2.150444 -4.80315 -4.80315z" fill-rule="evenodd"/><path stroke="#ffffff" stroke-width="8.0" stroke-linejoin="round" stroke-linecap="butt" d="m43.19685 48.0l0 0c0 -2.6527061 2.150444 -4.80315 4.80315 -4.80315l0 0c1.2738762 0 2.495575 0.5060463 3.3963394 1.4068108c0.90076447 0.90076447 1.4068108 2.1224632 1.4068108 3.3963394l0 0c0 2.6527061 -2.150444 4.80315 -4.80315 4.80315l0 0c-2.6527061 0 -4.80315 -2.150444 -4.80315 -4.80315z" fill-rule="evenodd"/></g></svg>