<svg version="1.1" viewBox="0.0 0.0 96.0 96.0" fill="none" stroke="none" stroke-linecap="square" stroke-miterlimit="10" xmlns:xlink="http://www.w3.org/1999/xlink" xmlns="http://www.w3.org/2000/svg"><clipPath id="p.0"><path d="m0 0l96.0 0l0 96.0l-96.0 0l0 -96.0z" clip-rule="nonzero"/></clipPath><g clip-path="url(#p.0)"><path fill="#000000" fill-opacity="0.0" d="m0 0l96.0 0l0 96.0l-96.0 0z" fill-rule="evenodd"/><path fill="#000000" fill-opacity="0.0" d="m83.48011 62.692673l-18.050468 -2.461319l3.5445786 -8.559422zm-0.004623413 -29.393661l-14.502724 11.0253105l-3.5459824 -8.558708zm-20.782776 -20.779566l-2.461319 18.050472l-8.559422 -3.5445805zm-29.3923 0.0013380051l11.023949 14.506013l-8.558708 3.5459805zm-20.780928 20.786064l18.050472 2.4613228l-3.5445805 8.559418zm0.0026988983 29.389015l14.504652 -11.020664l3.5459805 8.558708zm20.784702 20.78421l2.4613228 -18.050468l8.559418 3.5445786zm29.390377 -0.0059814453l-11.022026 -14.501366l8.558708 -3.5459824zm-29.608421 -41.649174c3.4102707 -8.235096 12.850708 -12.146385 21.0858 -8.7361145c8.235096 3.4102745 12.146389 12.850708 8.7361145 21.0858c-3.4102707 8.235096 -12.850708 12.146389 -21.0858 8.7361145c-8.235096 -3.4102707 -12.146385 -12.850708 -8.7361145 -21.0858z" fill-rule="evenodd"/><path stroke="#ffffff" stroke-width="3.0" stroke-linejoin="round" stroke-linecap="butt" d="m83.48011 62.692673l-18.050468 -2.461319l3.5445786 -8.559422zm-0.004623413 -29.393661l-14.502724 11.0253105l-3.5459824 -8.558708zm-20.782776 -20.779566l-2.461319 18.050472l-8.559422 -3.5445805zm-29.3923 0.0013380051l11.023949 14.506013l-8.558708 3.5459805zm-20.780928 20.786064l18.050472 2.4613228l-3.5445805 8.559418zm0.0026988983 29.389015l14.504652 -11.020664l3.5459805 8.558708zm20.784702 20.78421l2.4613228 -18.050468l8.559418 3.5445786zm29.390377 -0.0059814453l-11.022026 -14.501366l8.558708 -3.5459824zm-29.608421 -41.649174c3.4102707 -8.235096 12.850708 -12.146385 21.0858 -8.7361145c8.235096 3.4102745 12.146389 12.850708 8.7361145 21.0858c-3.4102707 8.235096 -12.850708 12.146389 -21.0858 8.7361145c-8.235096 -3.4102707 -12.146385 -12.850708 -8.7361145 -21.0858z" fill-rule="evenodd"/><path fill="#000000" fill-opacity="0.0" d="m39.849834 56.150166c3.6892853 3.6892853 9.396561 4.4406624 13.914993 1.8319435c4.5184364 -2.6087189 6.721363 -7.9270515 5.3709908 -12.966709c-1.3503723 -5.0396614 -5.9173317 -8.54401 -11.134769 -8.54401z" fill-rule="evenodd"/><path stroke="#ffffff" stroke-width="3.0" stroke-linejoin="round" stroke-linecap="butt" d="m39.849834 56.150166c3.6892853 3.6892853 9.396561 4.4406624 13.914993 1.8319435c4.5184364 -2.6087189 6.721363 -7.9270515 5.3709908 -12.966709c-1.3503723 -5.0396614 -5.9173317 -8.54401 -11.134769 -8.54401z" fill-rule="evenodd"/><path fill="#000000" fill-opacity="0.0" d="m43.254593 48.0l20.629921 0" fill-rule="evenodd"/><path stroke="#ffffff" stroke-width="3.0" stroke-linejoin="round" stroke-linecap="butt" d="m43.254593 48.0l20.629921 0" fill-rule="evenodd"/><path fill="#000000" fill-opacity="0.0" d="m48.0 63.81155l0 -4.2834663" fill-rule="evenodd"/><path stroke="#ffffff" stroke-width="3.0" stroke-linejoin="round" stroke-linecap="butt" d="m48.0 63.81155l0 -4.2834663" fill-rule="evenodd"/></g></svg>