<svg version="1.1" viewBox="0.0 0.0 480.0 480.0" fill="none" stroke="none" stroke-linecap="square" stroke-miterlimit="10" xmlns:xlink="http://www.w3.org/1999/xlink" xmlns="http://www.w3.org/2000/svg"><clipPath id="p.0"><path d="m0 0l480.0 0l0 480.0l-480.0 0l0 -480.0z" clip-rule="nonzero"/></clipPath><g clip-path="url(#p.0)"><path fill="#000000" fill-opacity="0.0" d="m0 0l480.0 0l0 480.0l-480.0 0z" fill-rule="evenodd"/><path fill="#000000" fill-opacity="0.0" d="m461.73126 331.77045l-112.80405 -15.376587l22.148895 -53.49164zm-0.03704834 -183.69069l-90.62927 68.90483l-22.162354 -53.4852zm-129.88419 -129.85262l-15.376617 112.80405l-53.49164 -22.148872zm-183.6822 0.016521454l68.89632 90.6498l-53.4852 22.162376zm-129.86111 129.90474l112.80405 15.376602l-22.14888 53.491623zm0.0250206 183.66165l90.64131 -68.87579l22.162376 53.4852zm129.89624 129.88165l15.376602 -112.80405l53.491623 22.148865zm183.67015 -0.045562744l-68.88428 -90.62076l53.4852 -22.162384zm-185.04434 -260.27124c21.309631 -51.464767 80.30495 -75.91033 131.76971 -54.600708c51.464752 21.309631 75.91034 80.30495 54.600708 131.76973c-21.309631 51.464752 -80.30495 75.91034 -131.76971 54.600708c-51.464767 -21.309631 -75.91034 -80.30495 -54.600708 -131.76973z" fill-rule="evenodd"/><path stroke="#ffffff" stroke-width="12.0" stroke-linejoin="round" stroke-linecap="butt" d="m461.73126 331.77045l-112.80405 -15.376587l22.148895 -53.49164zm-0.03704834 -183.69069l-90.62927 68.90483l-22.162354 -53.4852zm-129.88419 -129.85262l-15.376617 112.80405l-53.49164 -22.148872zm-183.6822 0.016521454l68.89632 90.6498l-53.4852 22.162376zm-129.86111 129.90474l112.80405 15.376602l-22.14888 53.491623zm0.0250206 183.66165l90.64131 -68.87579l22.162376 53.4852zm129.89624 129.88165l15.376602 -112.80405l53.491623 22.148865zm183.67015 -0.045562744l-68.88428 -90.62076l53.4852 -22.162384zm-185.04434 -260.27124c21.309631 -51.464767 80.30495 -75.91033 131.76971 -54.600708c51.464752 21.309631 75.91034 80.30495 54.600708 131.76973c-21.309631 51.464752 -80.30495 75.91034 -131.76971 54.600708c-51.464767 -21.309631 -75.91034 -80.30495 -54.600708 -131.76973z" fill-rule="evenodd"/><path fill="#000000" fill-opacity="0.0" d="m189.08832 290.8723c23.042908 23.042908 58.689987 27.735962 86.91168 11.442139c28.22171 -16.293793 41.980957 -49.51158 33.54666 -80.9888c-8.434296 -31.477203 -36.959045 -53.36502 -69.54666 -53.36502z" fill-rule="evenodd"/><path stroke="#ffffff" stroke-width="12.0" stroke-linejoin="round" stroke-linecap="butt" d="m189.08832 290.8723c23.042908 23.042908 58.689987 27.735962 86.91168 11.442139c28.22171 -16.293793 41.980957 -49.51158 33.54666 -80.9888c-8.434296 -31.477203 -36.959045 -53.36502 -69.54666 -53.36502z" fill-rule="evenodd"/><path fill="#000000" fill-opacity="0.0" d="m210.10236 239.96063l131.02362 0" fill-rule="evenodd"/><path stroke="#ffffff" stroke-width="12.0" stroke-linejoin="round" stroke-linecap="butt" d="m210.10236 239.96063l131.02362 0" fill-rule="evenodd"/><path fill="#000000" fill-opacity="0.0" d="m240.0 341.0l0 -29.039368" fill-rule="evenodd"/><path stroke="#ffffff" stroke-width="12.0" stroke-linejoin="round" stroke-linecap="butt" d="m240.0 341.0l0 -29.039368" fill-rule="evenodd"/></g></svg>