<svg version="1.1" viewBox="0.0 0.0 96.0 96.0" fill="none" stroke="none" stroke-linecap="square" stroke-miterlimit="10" xmlns:xlink="http://www.w3.org/1999/xlink" xmlns="http://www.w3.org/2000/svg"><clipPath id="p.0"><path d="m0 0l96.0 0l0 96.0l-96.0 0l0 -96.0z" clip-rule="nonzero"/></clipPath><g clip-path="url(#p.0)"><path fill="#000000" fill-opacity="0.0" d="m0 0l96.0 0l0 96.0l-96.0 0z" fill-rule="evenodd"/><path fill="#000000" fill-opacity="0.0" d="m6.0475516 30.614174l17.873177 -6.701847l6.7081356 -17.87104l17.377396 7.899324l17.379871 -7.893366l6.701851 17.873177l17.87104 6.7081356l-7.8993225 17.377394l7.893364 17.379875l-17.873177 6.701851l-6.7081375 17.87104l-17.377396 -7.89933l-17.379873 7.8933716l-6.701847 -17.873184l-17.87104 -6.70813l7.899324 -17.377396z" fill-rule="evenodd"/><path stroke="#ffffff" stroke-width="12.0" stroke-linejoin="round" stroke-linecap="butt" d="m6.0475516 30.614174l17.873177 -6.701847l6.7081356 -17.87104l17.377396 7.899324l17.379871 -7.893366l6.701851 17.873177l17.87104 6.7081356l-7.8993225 17.377394l7.893364 17.379875l-17.873177 6.701851l-6.7081375 17.87104l-17.377396 -7.89933l-17.379873 7.8933716l-6.701847 -17.873184l-17.87104 -6.70813l7.899324 -17.377396z" fill-rule="evenodd"/><path fill="#ffffff" d="m40.802456 48.000797l0 0c0 -3.9747124 3.2221413 -7.1968536 7.1968536 -7.1968536l0 0c1.9087219 0 3.7392693 0.75823975 5.0889397 2.1079102c1.3496704 1.3496704 2.1079102 3.1802177 2.1079102 5.0889435l0 0c0 3.9747086 -3.2221413 7.19685 -7.19685 7.19685l0 0c-3.9747124 0 -7.1968536 -3.2221413 -7.1968536 -7.19685z" fill-rule="evenodd"/><path stroke="#ffffff" stroke-width="12.0" stroke-linejoin="round" stroke-linecap="butt" d="m40.802456 48.000797l0 0c0 -3.9747124 3.2221413 -7.1968536 7.1968536 -7.1968536l0 0c1.9087219 0 3.7392693 0.75823975 5.0889397 2.1079102c1.3496704 1.3496704 2.1079102 3.1802177 2.1079102 5.0889435l0 0c0 3.9747086 -3.2221413 7.19685 -7.19685 7.19685l0 0c-3.9747124 0 -7.1968536 -3.2221413 -7.1968536 -7.19685z" fill-rule="evenodd"/></g></svg>